<svg xmlns="http://www.w3.org/2000/svg" xmlns:xlink="http://www.w3.org/1999/xlink" width="300" zoomAndPan="magnify" viewBox="0 0 224.87999 74.999997" height="100" preserveAspectRatio="xMidYMid meet" version="1.0"><defs><clipPath id="3ace6d5c94"><path d="M 22.101562 1.464844 L 88 1.464844 L 88 67 L 22.101562 67 Z M 22.101562 1.464844 " clip-rule="nonzero"/></clipPath><clipPath id="265b324803"><path d="M 57 23 L 94.0625 23 L 94.0625 73.425781 L 57 73.425781 Z M 57 23 " clip-rule="nonzero"/></clipPath><clipPath id="fe846e7772"><path d="M 92.195312 25 L 211 25 L 211 51.480469 L 92.195312 51.480469 Z M 92.195312 25 " clip-rule="nonzero"/></clipPath></defs><g clip-path="url(#3ace6d5c94)"><path fill="#02214c" d="M 54.726562 1.464844 C 72.746094 1.464844 87.355469 16.070312 87.355469 34.089844 C 87.355469 40.554688 85.476562 46.582031 82.230469 51.648438 L 74.617188 44.035156 L 73.726562 44.035156 C 75.285156 41.0625 76.167969 37.679688 76.167969 34.089844 C 76.167969 22.25 66.570312 12.648438 54.726562 12.648438 C 42.886719 12.648438 33.289062 22.25 33.289062 34.089844 C 33.289062 45.933594 42.886719 55.53125 54.726562 55.53125 C 55.675781 55.53125 56.609375 55.46875 57.523438 55.347656 L 57.523438 66.597656 C 56.601562 66.675781 55.671875 66.71875 54.726562 66.71875 C 36.710938 66.71875 22.101562 52.109375 22.101562 34.089844 C 22.101562 16.070312 36.710938 1.464844 54.726562 1.464844 Z M 54.726562 1.464844 " fill-opacity="1" fill-rule="nonzero"/></g><path fill="#2562e1" d="M 73.992188 32.539062 L 69.691406 36.757812 L 91.800781 58.589844 L 83.566406 66.929688 L 61.324219 44.96875 L 57.523438 48.695312 L 57.523438 32.539062 Z M 73.992188 32.539062 " fill-opacity="1" fill-rule="nonzero"/><g clip-path="url(#265b324803)"><path fill="#02214c" d="M 68.789062 61.472656 L 57.03125 73.003906 L 57.476562 49.9375 Z M 140.53125 50.386719 C 140.878906 50.386719 141.179688 50.457031 141.445312 50.59375 C 141.714844 50.730469 141.925781 50.898438 142.074219 51.105469 L 142.074219 50.457031 L 143.003906 50.457031 L 143.003906 54.984375 C 143.003906 55.390625 142.917969 55.753906 142.746094 56.074219 C 142.574219 56.394531 142.324219 56.648438 141.996094 56.832031 C 141.671875 57.015625 141.285156 57.105469 140.832031 57.105469 C 140.226562 57.105469 139.726562 56.964844 139.328125 56.679688 C 138.929688 56.398438 138.703125 56.015625 138.648438 55.53125 L 139.5625 55.53125 C 139.632812 55.761719 139.78125 55.949219 140.007812 56.089844 C 140.238281 56.234375 140.511719 56.308594 140.832031 56.308594 C 141.203125 56.308594 141.5 56.195312 141.726562 55.96875 C 141.960938 55.742188 142.074219 55.414062 142.074219 54.984375 L 142.074219 54.238281 C 141.917969 54.449219 141.707031 54.628906 141.4375 54.773438 C 141.171875 54.914062 140.871094 54.984375 140.53125 54.984375 C 140.144531 54.984375 139.789062 54.886719 139.464844 54.691406 C 139.148438 54.492188 138.894531 54.21875 138.707031 53.867188 C 138.523438 53.511719 138.433594 53.109375 138.433594 52.664062 C 138.433594 52.214844 138.523438 51.820312 138.707031 51.476562 C 138.894531 51.132812 139.148438 50.867188 139.464844 50.675781 C 139.789062 50.484375 140.144531 50.386719 140.53125 50.386719 Z M 195.949219 53.851562 L 197.25 50.457031 L 198.203125 50.457031 L 195.472656 57.003906 L 194.515625 57.003906 L 195.421875 54.835938 L 193.667969 50.457031 L 194.695312 50.457031 Z M 104.25 50.386719 C 104.789062 50.386719 105.234375 50.515625 105.582031 50.773438 C 105.9375 51.027344 106.179688 51.390625 106.300781 51.863281 L 105.308594 51.863281 C 105.226562 51.644531 105.097656 51.46875 104.921875 51.347656 C 104.742188 51.222656 104.519531 51.160156 104.25 51.160156 C 103.875 51.160156 103.570312 51.296875 103.34375 51.566406 C 103.125 51.828125 103.015625 52.199219 103.015625 52.679688 C 103.015625 53.160156 103.125 53.535156 103.34375 53.804688 C 103.570312 54.070312 103.875 54.207031 104.25 54.207031 C 104.78125 54.207031 105.136719 53.972656 105.308594 53.503906 L 106.300781 53.503906 C 106.171875 53.957031 105.929688 54.316406 105.574219 54.585938 C 105.21875 54.851562 104.777344 54.984375 104.25 54.984375 C 103.824219 54.984375 103.449219 54.886719 103.117188 54.699219 C 102.789062 54.507812 102.53125 54.238281 102.34375 53.890625 C 102.160156 53.542969 102.070312 53.136719 102.070312 52.679688 C 102.070312 52.222656 102.160156 51.820312 102.34375 51.476562 C 102.53125 51.125 102.789062 50.855469 103.117188 50.667969 C 103.449219 50.480469 103.824219 50.386719 104.25 50.386719 Z M 109.175781 50.386719 C 109.714844 50.386719 110.160156 50.515625 110.507812 50.773438 C 110.863281 51.027344 111.101562 51.390625 111.226562 51.863281 L 110.234375 51.863281 C 110.152344 51.644531 110.023438 51.46875 109.84375 51.347656 C 109.667969 51.222656 109.445312 51.160156 109.175781 51.160156 C 108.796875 51.160156 108.496094 51.296875 108.269531 51.566406 C 108.050781 51.828125 107.9375 52.199219 107.9375 52.679688 C 107.9375 53.160156 108.050781 53.535156 108.269531 53.804688 C 108.496094 54.070312 108.796875 54.207031 109.175781 54.207031 C 109.707031 54.207031 110.0625 53.972656 110.234375 53.503906 L 111.226562 53.503906 C 111.097656 53.957031 110.855469 54.316406 110.5 54.585938 C 110.144531 54.851562 109.703125 54.984375 109.175781 54.984375 C 108.75 54.984375 108.371094 54.886719 108.042969 54.699219 C 107.714844 54.507812 107.457031 54.238281 107.269531 53.890625 C 107.085938 53.542969 106.996094 53.136719 106.996094 52.679688 C 106.996094 52.222656 107.085938 51.820312 107.269531 51.476562 C 107.457031 51.125 107.714844 50.855469 108.042969 50.667969 C 108.371094 50.480469 108.75 50.386719 109.175781 50.386719 Z M 114.195312 50.386719 C 114.621094 50.386719 115.007812 50.480469 115.351562 50.667969 C 115.695312 50.855469 115.96875 51.125 116.167969 51.476562 C 116.367188 51.824219 116.46875 52.226562 116.46875 52.679688 C 116.46875 53.132812 116.367188 53.535156 116.160156 53.882812 C 115.957031 54.234375 115.675781 54.507812 115.320312 54.699219 C 114.96875 54.886719 114.582031 54.984375 114.15625 54.984375 C 113.738281 54.984375 113.355469 54.886719 113.015625 54.699219 C 112.679688 54.507812 112.410156 54.238281 112.21875 53.890625 C 112.023438 53.542969 111.925781 53.136719 111.925781 52.679688 C 111.925781 52.226562 112.027344 51.824219 112.226562 51.476562 C 112.425781 51.125 112.699219 50.855469 113.042969 50.667969 C 113.386719 50.480469 113.773438 50.386719 114.195312 50.386719 Z M 154.773438 50.386719 C 155.199219 50.386719 155.585938 50.480469 155.929688 50.667969 C 156.273438 50.855469 156.546875 51.125 156.746094 51.476562 C 156.945312 51.824219 157.046875 52.226562 157.046875 52.679688 C 157.046875 53.132812 156.941406 53.535156 156.738281 53.882812 C 156.535156 54.234375 156.253906 54.507812 155.898438 54.699219 C 155.546875 54.886719 155.160156 54.984375 154.734375 54.984375 C 154.3125 54.984375 153.933594 54.886719 153.59375 54.699219 C 153.257812 54.507812 152.988281 54.238281 152.796875 53.890625 C 152.601562 53.542969 152.503906 53.136719 152.503906 52.679688 C 152.503906 52.226562 152.605469 51.824219 152.804688 51.476562 C 153.003906 51.125 153.273438 50.855469 153.621094 50.667969 C 153.964844 50.480469 154.351562 50.386719 154.773438 50.386719 Z M 164.90625 50.386719 C 165.414062 50.386719 165.820312 50.515625 166.128906 50.773438 C 166.441406 51.027344 166.605469 51.375 166.628906 51.816406 L 165.707031 51.816406 C 165.691406 51.617188 165.609375 51.457031 165.464844 51.339844 C 165.320312 51.21875 165.121094 51.160156 164.875 51.160156 C 164.632812 51.160156 164.445312 51.207031 164.316406 51.300781 C 164.1875 51.390625 164.121094 51.511719 164.121094 51.664062 C 164.121094 51.78125 164.167969 51.878906 164.253906 51.960938 C 164.339844 52.042969 164.445312 52.105469 164.566406 52.15625 C 164.691406 52.199219 164.875 52.253906 165.117188 52.324219 C 165.441406 52.410156 165.703125 52.5 165.910156 52.589844 C 166.117188 52.675781 166.300781 52.804688 166.449219 52.980469 C 166.601562 53.152344 166.679688 53.378906 166.683594 53.664062 C 166.683594 53.917969 166.613281 54.144531 166.472656 54.34375 C 166.335938 54.542969 166.136719 54.699219 165.875 54.8125 C 165.625 54.925781 165.324219 54.984375 164.980469 54.984375 C 164.628906 54.984375 164.3125 54.921875 164.035156 54.796875 C 163.761719 54.667969 163.542969 54.496094 163.378906 54.28125 C 163.21875 54.058594 163.132812 53.8125 163.121094 53.542969 L 164.074219 53.542969 C 164.089844 53.734375 164.179688 53.890625 164.339844 54.019531 C 164.507812 54.144531 164.714844 54.207031 164.964844 54.207031 C 165.222656 54.207031 165.421875 54.160156 165.5625 54.0625 C 165.707031 53.960938 165.777344 53.828125 165.777344 53.671875 C 165.777344 53.507812 165.699219 53.382812 165.539062 53.300781 C 165.378906 53.222656 165.128906 53.132812 164.785156 53.035156 C 164.453125 52.945312 164.179688 52.855469 163.96875 52.769531 C 163.757812 52.683594 163.578125 52.550781 163.421875 52.371094 C 163.269531 52.195312 163.195312 51.960938 163.195312 51.671875 C 163.195312 51.433594 163.265625 51.21875 163.40625 51.023438 C 163.542969 50.824219 163.742188 50.667969 164.003906 50.554688 C 164.265625 50.441406 164.566406 50.386719 164.90625 50.386719 Z M 180.179688 50.386719 C 180.527344 50.386719 180.832031 50.457031 181.09375 50.59375 C 181.355469 50.730469 181.566406 50.898438 181.722656 51.105469 L 181.722656 50.457031 L 182.652344 50.457031 L 182.652344 54.910156 L 181.722656 54.910156 L 181.722656 54.246094 C 181.566406 54.457031 181.355469 54.632812 181.082031 54.773438 C 180.816406 54.914062 180.507812 54.984375 180.164062 54.984375 C 179.78125 54.984375 179.429688 54.886719 179.113281 54.691406 C 178.796875 54.492188 178.542969 54.21875 178.351562 53.867188 C 178.167969 53.511719 178.078125 53.109375 178.078125 52.664062 C 178.078125 52.214844 178.167969 51.820312 178.351562 51.476562 C 178.542969 51.132812 178.796875 50.867188 179.113281 50.675781 C 179.4375 50.484375 179.792969 50.386719 180.179688 50.386719 Z M 191.144531 50.386719 C 191.683594 50.386719 192.125 50.515625 192.476562 50.773438 C 192.832031 51.027344 193.070312 51.390625 193.195312 51.863281 L 192.203125 51.863281 C 192.121094 51.644531 191.992188 51.46875 191.8125 51.347656 C 191.636719 51.222656 191.414062 51.160156 191.144531 51.160156 C 190.765625 51.160156 190.464844 51.296875 190.238281 51.566406 C 190.019531 51.828125 189.90625 52.199219 189.90625 52.679688 C 189.90625 53.160156 190.019531 53.535156 190.238281 53.804688 C 190.464844 54.070312 190.765625 54.207031 191.144531 54.207031 C 191.675781 54.207031 192.03125 53.972656 192.203125 53.503906 L 193.195312 53.503906 C 193.066406 53.957031 192.824219 54.316406 192.46875 54.585938 C 192.113281 54.851562 191.671875 54.984375 191.144531 54.984375 C 190.71875 54.984375 190.339844 54.886719 190.011719 54.699219 C 189.683594 54.507812 189.425781 54.238281 189.238281 53.890625 C 189.054688 53.542969 188.960938 53.136719 188.960938 52.679688 C 188.960938 52.222656 189.054688 51.820312 189.238281 51.476562 C 189.425781 51.125 189.683594 50.855469 190.011719 50.667969 C 190.339844 50.480469 190.71875 50.386719 191.144531 50.386719 Z M 118.332031 52.9375 C 118.332031 53.335938 118.429688 53.644531 118.628906 53.859375 C 118.828125 54.070312 119.101562 54.175781 119.445312 54.175781 C 119.789062 54.175781 120.0625 54.070312 120.261719 53.859375 C 120.464844 53.644531 120.570312 53.335938 120.570312 52.9375 L 120.570312 50.457031 L 121.492188 50.457031 L 121.492188 54.910156 L 120.570312 54.910156 L 120.570312 54.386719 C 120.421875 54.566406 120.234375 54.714844 119.996094 54.820312 C 119.765625 54.921875 119.515625 54.972656 119.25 54.972656 C 118.902344 54.972656 118.585938 54.902344 118.308594 54.757812 C 118.03125 54.609375 117.8125 54.394531 117.652344 54.109375 C 117.496094 53.824219 117.417969 53.480469 117.417969 53.074219 L 117.417969 50.457031 L 118.332031 50.457031 Z M 168.632812 52.9375 C 168.632812 53.335938 168.730469 53.644531 168.933594 53.859375 C 169.128906 54.070312 169.402344 54.175781 169.746094 54.175781 C 170.09375 54.175781 170.363281 54.070312 170.5625 53.859375 C 170.769531 53.644531 170.871094 53.335938 170.871094 52.9375 L 170.871094 50.457031 L 171.792969 50.457031 L 171.792969 54.910156 L 170.871094 54.910156 L 170.871094 54.386719 C 170.726562 54.566406 170.535156 54.714844 170.296875 54.820312 C 170.066406 54.921875 169.816406 54.972656 169.554688 54.972656 C 169.203125 54.972656 168.890625 54.902344 168.609375 54.757812 C 168.332031 54.609375 168.117188 54.394531 167.953125 54.109375 C 167.796875 53.824219 167.71875 53.480469 167.71875 53.074219 L 167.71875 50.457031 L 168.632812 50.457031 Z M 149.035156 49.222656 C 149.632812 49.222656 150.164062 49.371094 150.628906 49.667969 C 151.09375 49.957031 151.433594 50.371094 151.644531 50.910156 L 150.539062 50.910156 C 150.394531 50.613281 150.191406 50.394531 149.933594 50.25 C 149.671875 50.101562 149.375 50.03125 149.035156 50.03125 C 148.664062 50.03125 148.332031 50.113281 148.042969 50.28125 C 147.75 50.449219 147.523438 50.6875 147.355469 51 C 147.195312 51.3125 147.113281 51.675781 147.113281 52.089844 C 147.113281 52.503906 147.195312 52.867188 147.355469 53.179688 C 147.523438 53.492188 147.75 53.734375 148.042969 53.90625 C 148.332031 54.074219 148.664062 54.160156 149.035156 54.160156 C 149.375 54.160156 149.671875 54.085938 149.933594 53.941406 C 150.191406 53.796875 150.394531 53.574219 150.539062 53.277344 L 151.644531 53.277344 C 151.433594 53.816406 151.09375 54.230469 150.628906 54.523438 C 150.164062 54.8125 149.632812 54.957031 149.035156 54.957031 C 148.507812 54.957031 148.027344 54.835938 147.589844 54.59375 C 147.152344 54.347656 146.804688 54.003906 146.546875 53.570312 C 146.292969 53.132812 146.167969 52.640625 146.167969 52.089844 C 146.167969 51.539062 146.292969 51.046875 146.546875 50.613281 C 146.804688 50.175781 147.152344 49.835938 147.589844 49.59375 C 148.03125 49.347656 148.511719 49.222656 149.035156 49.222656 Z M 101.421875 54.910156 L 100.449219 54.910156 L 100.046875 53.761719 L 97.695312 53.761719 L 97.292969 54.910156 L 96.332031 54.910156 L 98.34375 49.285156 L 99.410156 49.285156 Z M 125.03125 50.386719 C 125.382812 50.386719 125.695312 50.457031 125.96875 50.605469 C 126.25 50.75 126.46875 50.964844 126.625 51.25 C 126.78125 51.535156 126.855469 51.878906 126.855469 52.285156 L 126.855469 54.910156 L 125.945312 54.910156 L 125.945312 52.421875 C 125.945312 52.023438 125.84375 51.71875 125.644531 51.507812 C 125.445312 51.292969 125.175781 51.183594 124.832031 51.183594 C 124.484375 51.183594 124.210938 51.292969 124.007812 51.507812 C 123.808594 51.71875 123.707031 52.023438 123.707031 52.421875 L 123.707031 54.910156 L 122.785156 54.910156 L 122.785156 50.457031 L 123.707031 50.457031 L 123.707031 50.96875 C 123.859375 50.785156 124.050781 50.640625 124.28125 50.539062 C 124.519531 50.4375 124.769531 50.386719 125.03125 50.386719 Z M 129.1875 50.457031 L 130.269531 50.457031 L 130.269531 51.210938 L 129.1875 51.210938 L 129.1875 53.671875 C 129.1875 53.839844 129.226562 53.960938 129.300781 54.039062 C 129.382812 54.105469 129.515625 54.140625 129.707031 54.140625 L 130.269531 54.140625 L 130.269531 54.910156 L 129.542969 54.910156 C 129.128906 54.910156 128.8125 54.8125 128.589844 54.617188 C 128.371094 54.425781 128.257812 54.109375 128.257812 53.671875 L 128.257812 51.210938 L 127.734375 51.210938 L 127.734375 50.457031 L 128.257812 50.457031 L 128.257812 49.351562 L 129.1875 49.351562 Z M 132.121094 54.910156 L 131.199219 54.910156 L 131.199219 50.457031 L 132.121094 50.457031 Z M 135.65625 50.386719 C 136.007812 50.386719 136.320312 50.457031 136.59375 50.605469 C 136.875 50.75 137.09375 50.964844 137.25 51.25 C 137.40625 51.535156 137.484375 51.878906 137.484375 52.285156 L 137.484375 54.910156 L 136.570312 54.910156 L 136.570312 52.421875 C 136.570312 52.023438 136.46875 51.71875 136.269531 51.507812 C 136.070312 51.292969 135.800781 51.183594 135.453125 51.183594 C 135.109375 51.183594 134.835938 51.292969 134.628906 51.507812 C 134.433594 51.71875 134.332031 52.023438 134.332031 52.421875 L 134.332031 54.910156 L 133.410156 54.910156 L 133.410156 50.457031 L 134.332031 50.457031 L 134.332031 50.96875 C 134.484375 50.785156 134.675781 50.640625 134.90625 50.539062 C 135.144531 50.4375 135.394531 50.386719 135.65625 50.386719 Z M 160.28125 50.386719 C 160.632812 50.386719 160.945312 50.457031 161.21875 50.605469 C 161.5 50.75 161.71875 50.964844 161.875 51.25 C 162.03125 51.535156 162.109375 51.878906 162.109375 52.285156 L 162.109375 54.910156 L 161.195312 54.910156 L 161.195312 52.421875 C 161.195312 52.023438 161.097656 51.71875 160.894531 51.507812 C 160.695312 51.292969 160.425781 51.183594 160.082031 51.183594 C 159.734375 51.183594 159.460938 51.292969 159.257812 51.507812 C 159.058594 51.71875 158.957031 52.023438 158.957031 52.421875 L 158.957031 54.910156 L 158.035156 54.910156 L 158.035156 50.457031 L 158.957031 50.457031 L 158.957031 50.96875 C 159.109375 50.785156 159.300781 50.640625 159.53125 50.539062 C 159.769531 50.4375 160.019531 50.386719 160.28125 50.386719 Z M 174.007812 54.910156 L 173.085938 54.910156 L 173.085938 48.929688 L 174.007812 48.929688 Z M 176.375 50.457031 L 177.457031 50.457031 L 177.457031 51.210938 L 176.375 51.210938 L 176.375 53.671875 C 176.375 53.839844 176.410156 53.960938 176.484375 54.039062 C 176.566406 54.105469 176.703125 54.140625 176.890625 54.140625 L 177.457031 54.140625 L 177.457031 54.910156 L 176.730469 54.910156 C 176.3125 54.910156 175.996094 54.8125 175.773438 54.617188 C 175.554688 54.425781 175.445312 54.109375 175.445312 53.671875 L 175.445312 51.210938 L 174.917969 51.210938 L 174.917969 50.457031 L 175.445312 50.457031 L 175.445312 49.351562 L 176.375 49.351562 Z M 186.1875 50.386719 C 186.539062 50.386719 186.851562 50.457031 187.125 50.605469 C 187.40625 50.75 187.625 50.964844 187.78125 51.25 C 187.933594 51.535156 188.015625 51.878906 188.015625 52.285156 L 188.015625 54.910156 L 187.101562 54.910156 L 187.101562 52.421875 C 187.101562 52.023438 187 51.71875 186.800781 51.507812 C 186.601562 51.292969 186.332031 51.183594 185.984375 51.183594 C 185.640625 51.183594 185.367188 51.292969 185.160156 51.507812 C 184.960938 51.71875 184.863281 52.023438 184.863281 52.421875 L 184.863281 54.910156 L 183.941406 54.910156 L 183.941406 50.457031 L 184.863281 50.457031 L 184.863281 50.96875 C 185.011719 50.785156 185.203125 50.640625 185.4375 50.539062 C 185.671875 50.4375 185.921875 50.386719 186.1875 50.386719 Z M 114.179688 51.183594 C 113.945312 51.183594 113.722656 51.242188 113.519531 51.355469 C 113.320312 51.46875 113.160156 51.636719 113.042969 51.863281 C 112.921875 52.085938 112.863281 52.355469 112.863281 52.679688 C 112.863281 53.160156 112.984375 53.53125 113.226562 53.796875 C 113.476562 54.054688 113.785156 54.183594 114.15625 54.183594 C 114.394531 54.183594 114.613281 54.125 114.820312 54.011719 C 115.027344 53.898438 115.199219 53.730469 115.328125 53.503906 C 115.457031 53.277344 115.523438 53.003906 115.523438 52.679688 C 115.523438 52.355469 115.460938 52.085938 115.335938 51.863281 C 115.210938 51.636719 115.046875 51.46875 114.84375 51.355469 C 114.640625 51.242188 114.417969 51.183594 114.179688 51.183594 Z M 140.726562 51.183594 C 140.488281 51.183594 140.269531 51.246094 140.0625 51.363281 C 139.859375 51.476562 139.691406 51.644531 139.5625 51.871094 C 139.4375 52.09375 139.375 52.355469 139.375 52.664062 C 139.375 52.96875 139.4375 53.238281 139.5625 53.472656 C 139.691406 53.703125 139.859375 53.882812 140.0625 54.003906 C 140.273438 54.125 140.496094 54.183594 140.726562 54.183594 C 140.960938 54.183594 141.183594 54.125 141.386719 54.003906 C 141.59375 53.886719 141.757812 53.714844 141.882812 53.488281 C 142.011719 53.257812 142.074219 52.988281 142.074219 52.679688 C 142.074219 52.375 142.011719 52.105469 141.882812 51.878906 C 141.757812 51.652344 141.59375 51.480469 141.386719 51.363281 C 141.183594 51.246094 140.960938 51.183594 140.726562 51.183594 Z M 154.757812 51.183594 C 154.523438 51.183594 154.300781 51.242188 154.097656 51.355469 C 153.898438 51.46875 153.738281 51.636719 153.621094 51.863281 C 153.5 52.085938 153.441406 52.355469 153.441406 52.679688 C 153.441406 53.160156 153.5625 53.53125 153.804688 53.796875 C 154.054688 54.054688 154.363281 54.183594 154.734375 54.183594 C 154.972656 54.183594 155.191406 54.125 155.398438 54.011719 C 155.605469 53.898438 155.777344 53.730469 155.90625 53.503906 C 156.035156 53.277344 156.101562 53.003906 156.101562 52.679688 C 156.101562 52.355469 156.039062 52.085938 155.914062 51.863281 C 155.789062 51.636719 155.625 51.46875 155.421875 51.355469 C 155.214844 51.242188 154.996094 51.183594 154.757812 51.183594 Z M 180.371094 51.183594 C 180.136719 51.183594 179.914062 51.246094 179.710938 51.363281 C 179.507812 51.476562 179.339844 51.644531 179.210938 51.871094 C 179.085938 52.09375 179.023438 52.355469 179.023438 52.664062 C 179.023438 52.96875 179.085938 53.238281 179.210938 53.472656 C 179.339844 53.703125 179.507812 53.882812 179.710938 54.003906 C 179.921875 54.125 180.140625 54.183594 180.371094 54.183594 C 180.609375 54.183594 180.832031 54.125 181.035156 54.003906 C 181.238281 53.886719 181.40625 53.714844 181.527344 53.488281 C 181.65625 53.257812 181.722656 52.988281 181.722656 52.679688 C 181.722656 52.375 181.65625 52.105469 181.527344 51.878906 C 181.40625 51.652344 181.242188 51.480469 181.035156 51.363281 C 180.832031 51.246094 180.609375 51.183594 180.371094 51.183594 Z M 97.953125 53.011719 L 99.789062 53.011719 L 98.875 50.402344 Z M 131.667969 48.6875 C 131.832031 48.6875 131.96875 48.746094 132.082031 48.859375 C 132.195312 48.972656 132.25 49.113281 132.25 49.277344 C 132.25 49.445312 132.195312 49.585938 132.082031 49.699219 C 131.96875 49.8125 131.832031 49.867188 131.667969 49.867188 C 131.5 49.867188 131.363281 49.8125 131.25 49.699219 C 131.136719 49.585938 131.078125 49.445312 131.078125 49.277344 C 131.078125 49.113281 131.136719 48.972656 131.25 48.859375 C 131.363281 48.746094 131.5 48.6875 131.667969 48.6875 Z M 130.828125 25.214844 C 132.140625 25.214844 133.339844 25.519531 134.425781 26.128906 C 135.527344 26.738281 136.390625 27.585938 137.011719 28.675781 C 137.648438 29.761719 137.964844 30.988281 137.964844 32.351562 C 137.964844 33.546875 137.722656 34.640625 137.230469 35.636719 C 136.753906 36.617188 136.085938 37.429688 135.222656 38.082031 L 138.285156 41.757812 L 134.167969 41.757812 L 132.378906 39.351562 C 131.847656 39.460938 131.332031 39.511719 130.828125 39.511719 C 129.515625 39.511719 128.308594 39.207031 127.207031 38.597656 C 126.121094 37.988281 125.253906 37.140625 124.601562 36.050781 C 123.96875 34.953125 123.648438 33.71875 123.648438 32.351562 C 123.648438 30.988281 123.96875 29.761719 124.601562 28.675781 C 125.253906 27.585938 126.121094 26.738281 127.207031 26.128906 C 128.308594 25.519531 129.515625 25.214844 130.828125 25.214844 Z M 166.019531 28.117188 C 166.800781 28.117188 167.484375 28.277344 168.070312 28.59375 C 168.664062 28.914062 169.125 29.332031 169.441406 29.847656 L 169.441406 28.277344 L 172.84375 28.277344 L 172.84375 39.375 L 169.441406 39.375 L 169.441406 37.800781 C 169.109375 38.320312 168.644531 38.738281 168.050781 39.054688 C 167.464844 39.375 166.78125 39.53125 166 39.53125 C 165.097656 39.53125 164.277344 39.300781 163.535156 38.835938 C 162.792969 38.359375 162.203125 37.691406 161.765625 36.828125 C 161.339844 35.953125 161.128906 34.945312 161.128906 33.804688 C 161.128906 32.664062 161.339844 31.664062 161.765625 30.800781 C 162.203125 29.941406 162.792969 29.277344 163.535156 28.8125 C 164.277344 28.347656 165.105469 28.117188 166.019531 28.117188 Z M 143.179688 34.300781 C 143.179688 35.042969 143.371094 35.621094 143.757812 36.03125 C 144.140625 36.441406 144.65625 36.648438 145.308594 36.648438 C 145.96875 36.648438 146.492188 36.441406 146.878906 36.03125 C 147.261719 35.621094 147.453125 35.042969 147.453125 34.300781 L 147.453125 28.277344 L 150.855469 28.277344 L 150.855469 39.375 L 147.453125 39.375 L 147.453125 37.863281 C 147.109375 38.351562 146.640625 38.75 146.042969 39.054688 C 145.460938 39.347656 144.808594 39.492188 144.09375 39.492188 C 143.246094 39.492188 142.496094 39.308594 141.847656 38.9375 C 141.195312 38.550781 140.695312 38 140.335938 37.285156 C 139.976562 36.570312 139.796875 35.726562 139.796875 34.757812 L 139.796875 28.277344 L 143.179688 28.277344 Z M 110.414062 39.375 L 106.816406 39.375 L 105.980469 36.90625 L 100.769531 36.90625 L 99.933594 39.375 L 96.375 39.375 L 101.425781 25.414062 L 105.363281 25.414062 Z M 115.351562 39.375 L 111.953125 39.375 L 111.953125 24.65625 L 115.351562 24.65625 Z M 160.179688 31.757812 L 159.246094 31.757812 C 158.394531 31.757812 157.757812 31.941406 157.335938 32.3125 C 156.910156 32.671875 156.699219 33.308594 156.699219 34.222656 L 156.699219 39.375 L 153.296875 39.375 L 153.296875 28.277344 L 156.699219 28.277344 L 156.699219 30.125 C 157.097656 29.515625 157.59375 29.039062 158.191406 28.695312 C 158.785156 28.335938 159.449219 28.15625 160.179688 28.15625 Z M 178.703125 39.375 L 175.300781 39.375 L 175.300781 28.277344 L 178.703125 28.277344 Z M 187.929688 28.15625 C 189.226562 28.15625 190.261719 28.582031 191.03125 29.429688 C 191.8125 30.265625 192.203125 31.417969 192.203125 32.890625 L 192.203125 39.375 L 188.824219 39.375 L 188.824219 33.347656 C 188.824219 32.605469 188.632812 32.027344 188.246094 31.617188 C 187.863281 31.207031 187.34375 31 186.695312 31 C 186.046875 31 185.527344 31.207031 185.144531 31.617188 C 184.761719 32.027344 184.566406 32.605469 184.566406 33.347656 L 184.566406 39.375 L 181.167969 39.375 L 181.167969 28.277344 L 184.566406 28.277344 L 184.566406 29.746094 C 184.910156 29.257812 185.375 28.875 185.960938 28.59375 C 186.542969 28.304688 187.199219 28.15625 187.929688 28.15625 Z M 197.96875 39.375 L 194.566406 39.375 L 194.566406 28.277344 L 197.96875 28.277344 Z M 167.015625 31.082031 C 166.339844 31.082031 165.761719 31.324219 165.285156 31.816406 C 164.820312 32.292969 164.589844 32.957031 164.589844 33.804688 C 164.589844 34.652344 164.820312 35.328125 165.285156 35.832031 C 165.761719 36.324219 166.339844 36.570312 167.015625 36.570312 C 167.691406 36.570312 168.261719 36.324219 168.726562 35.832031 C 169.203125 35.34375 169.441406 34.671875 169.441406 33.824219 C 169.441406 32.976562 169.203125 32.308594 168.726562 31.816406 C 168.261719 31.324219 167.691406 31.082031 167.015625 31.082031 Z M 130.828125 28.296875 C 129.703125 28.296875 128.800781 28.660156 128.125 29.390625 C 127.460938 30.117188 127.128906 31.105469 127.128906 32.351562 C 127.128906 33.585938 127.460938 34.574219 128.125 35.316406 C 128.800781 36.046875 129.703125 36.410156 130.828125 36.410156 C 131.941406 36.410156 132.832031 36.039062 133.492188 35.296875 C 134.167969 34.554688 134.507812 33.574219 134.507812 32.351562 C 134.507812 31.121094 134.167969 30.140625 133.492188 29.410156 C 132.832031 28.667969 131.941406 28.296875 130.828125 28.296875 Z M 122.390625 35.257812 L 117.179688 35.257812 L 117.179688 32.832031 L 122.390625 32.832031 Z M 101.664062 34.28125 L 105.105469 34.28125 L 103.375 29.171875 Z M 177.011719 23.445312 C 177.59375 23.445312 178.074219 23.625 178.445312 23.980469 C 178.828125 24.324219 179.019531 24.761719 179.019531 25.292969 C 179.019531 25.808594 178.828125 26.246094 178.445312 26.605469 C 178.074219 26.949219 177.59375 27.121094 177.011719 27.121094 C 176.417969 27.121094 175.925781 26.949219 175.539062 26.605469 C 175.167969 26.246094 174.984375 25.808594 174.984375 25.292969 C 174.984375 24.761719 175.167969 24.324219 175.539062 23.980469 C 175.925781 23.625 176.417969 23.445312 177.011719 23.445312 Z M 196.277344 23.445312 C 196.859375 23.445312 197.339844 23.625 197.710938 23.980469 C 198.09375 24.324219 198.285156 24.761719 198.285156 25.292969 C 198.285156 25.808594 198.09375 26.246094 197.710938 26.605469 C 197.339844 26.949219 196.859375 27.121094 196.277344 27.121094 C 195.679688 27.121094 195.191406 26.949219 194.804688 26.605469 C 194.433594 26.246094 194.25 25.808594 194.25 25.292969 C 194.25 24.761719 194.433594 24.324219 194.804688 23.980469 C 195.191406 23.625 195.679688 23.445312 196.277344 23.445312 Z M 196.277344 23.445312 " fill-opacity="1" fill-rule="nonzero"/></g><g clip-path="url(#fe846e7772)"><path fill="#02214c" d="M 61.152344 69.898438 L 47.558594 83.234375 L 48.070312 56.558594 Z M 144.109375 57.078125 C 144.507812 57.078125 144.863281 57.15625 145.167969 57.320312 C 145.476562 57.476562 145.71875 57.671875 145.894531 57.910156 L 145.894531 57.160156 L 146.96875 57.160156 L 146.96875 62.394531 C 146.96875 62.867188 146.867188 63.285156 146.671875 63.652344 C 146.472656 64.027344 146.179688 64.320312 145.800781 64.53125 C 145.425781 64.742188 144.980469 64.851562 144.457031 64.851562 C 143.757812 64.851562 143.179688 64.683594 142.71875 64.355469 C 142.257812 64.03125 141.996094 63.589844 141.933594 63.027344 L 142.988281 63.027344 C 143.070312 63.296875 143.242188 63.511719 143.503906 63.671875 C 143.769531 63.839844 144.089844 63.925781 144.457031 63.925781 C 144.886719 63.925781 145.230469 63.792969 145.492188 63.53125 C 145.761719 63.269531 145.894531 62.890625 145.894531 62.394531 L 145.894531 61.535156 C 145.714844 61.777344 145.46875 61.980469 145.15625 62.148438 C 144.851562 62.3125 144.503906 62.394531 144.109375 62.394531 C 143.664062 62.394531 143.25 62.28125 142.878906 62.058594 C 142.511719 61.828125 142.21875 61.507812 142 61.105469 C 141.789062 60.691406 141.683594 60.226562 141.683594 59.710938 C 141.683594 59.195312 141.789062 58.738281 142 58.339844 C 142.21875 57.941406 142.511719 57.632812 142.878906 57.414062 C 143.25 57.191406 143.660156 57.078125 144.109375 57.078125 Z M 208.1875 61.085938 L 209.691406 57.160156 L 210.792969 57.160156 L 207.636719 64.726562 L 206.535156 64.726562 L 207.582031 62.222656 L 205.554688 57.160156 L 206.738281 57.160156 Z M 102.15625 57.078125 C 102.78125 57.078125 103.292969 57.226562 103.699219 57.527344 C 104.109375 57.816406 104.386719 58.238281 104.53125 58.785156 L 103.382812 58.785156 C 103.289062 58.53125 103.136719 58.332031 102.933594 58.1875 C 102.726562 58.046875 102.46875 57.972656 102.15625 57.972656 C 101.722656 57.972656 101.371094 58.128906 101.109375 58.441406 C 100.855469 58.746094 100.726562 59.175781 100.726562 59.730469 C 100.726562 60.285156 100.855469 60.71875 101.109375 61.027344 C 101.371094 61.339844 101.722656 61.496094 102.15625 61.496094 C 102.773438 61.496094 103.183594 61.226562 103.382812 60.683594 L 104.53125 60.683594 C 104.378906 61.207031 104.101562 61.625 103.6875 61.933594 C 103.277344 62.242188 102.769531 62.394531 102.15625 62.394531 C 101.664062 62.394531 101.230469 62.285156 100.847656 62.066406 C 100.46875 61.839844 100.171875 61.53125 99.953125 61.132812 C 99.742188 60.726562 99.636719 60.261719 99.636719 59.730469 C 99.636719 59.199219 99.742188 58.738281 99.953125 58.339844 C 100.171875 57.933594 100.46875 57.621094 100.847656 57.402344 C 101.230469 57.1875 101.664062 57.078125 102.15625 57.078125 Z M 107.851562 57.078125 C 108.476562 57.078125 108.988281 57.226562 109.394531 57.527344 C 109.804688 57.816406 110.082031 58.238281 110.226562 58.785156 L 109.074219 58.785156 C 108.980469 58.53125 108.832031 58.332031 108.628906 58.1875 C 108.421875 58.046875 108.164062 57.972656 107.851562 57.972656 C 107.417969 57.972656 107.066406 58.128906 106.804688 58.441406 C 106.550781 58.746094 106.421875 59.175781 106.421875 59.730469 C 106.421875 60.285156 106.550781 60.71875 106.804688 61.027344 C 107.066406 61.339844 107.417969 61.496094 107.851562 61.496094 C 108.46875 61.496094 108.875 61.226562 109.074219 60.683594 L 110.226562 60.683594 C 110.074219 61.207031 109.796875 61.625 109.382812 61.933594 C 108.972656 62.242188 108.460938 62.394531 107.851562 62.394531 C 107.359375 62.394531 106.925781 62.285156 106.542969 62.066406 C 106.164062 61.839844 105.863281 61.53125 105.648438 61.132812 C 105.433594 60.726562 105.332031 60.261719 105.332031 59.730469 C 105.332031 59.199219 105.433594 58.738281 105.648438 58.339844 C 105.863281 57.933594 106.164062 57.621094 106.542969 57.402344 C 106.925781 57.1875 107.359375 57.078125 107.851562 57.078125 Z M 113.660156 57.078125 C 114.152344 57.078125 114.597656 57.1875 114.996094 57.402344 C 115.394531 57.621094 115.707031 57.933594 115.9375 58.339844 C 116.167969 58.742188 116.285156 59.207031 116.285156 59.730469 C 116.285156 60.253906 116.167969 60.71875 115.929688 61.121094 C 115.691406 61.527344 115.367188 61.839844 114.957031 62.066406 C 114.554688 62.285156 114.105469 62.394531 113.613281 62.394531 C 113.125 62.394531 112.6875 62.285156 112.296875 62.066406 C 111.902344 61.839844 111.59375 61.53125 111.371094 61.132812 C 111.144531 60.726562 111.035156 60.261719 111.035156 59.730469 C 111.035156 59.207031 111.148438 58.742188 111.378906 58.339844 C 111.609375 57.933594 111.925781 57.621094 112.324219 57.402344 C 112.722656 57.1875 113.167969 57.078125 113.660156 57.078125 Z M 160.578125 57.078125 C 161.070312 57.078125 161.515625 57.1875 161.914062 57.402344 C 162.3125 57.621094 162.628906 57.933594 162.859375 58.339844 C 163.089844 58.742188 163.207031 59.207031 163.207031 59.730469 C 163.207031 60.253906 163.085938 60.71875 162.851562 61.121094 C 162.613281 61.527344 162.289062 61.839844 161.878906 62.066406 C 161.472656 62.285156 161.023438 62.394531 160.53125 62.394531 C 160.046875 62.394531 159.609375 62.285156 159.214844 62.066406 C 158.824219 61.84375 158.515625 61.53125 158.292969 61.132812 C 158.066406 60.726562 157.953125 60.261719 157.953125 59.730469 C 157.953125 59.207031 158.070312 58.742188 158.300781 58.339844 C 158.53125 57.933594 158.84375 57.621094 159.242188 57.402344 C 159.640625 57.1875 160.085938 57.078125 160.578125 57.078125 Z M 172.296875 57.078125 C 172.882812 57.078125 173.351562 57.226562 173.707031 57.527344 C 174.066406 57.816406 174.261719 58.21875 174.285156 58.730469 L 173.21875 58.730469 C 173.203125 58.5 173.109375 58.316406 172.941406 58.179688 C 172.773438 58.042969 172.542969 57.972656 172.257812 57.972656 C 171.976562 57.972656 171.761719 58.027344 171.613281 58.132812 C 171.464844 58.238281 171.386719 58.378906 171.386719 58.554688 C 171.386719 58.691406 171.4375 58.804688 171.539062 58.898438 C 171.636719 58.992188 171.761719 59.066406 171.902344 59.125 C 172.046875 59.171875 172.257812 59.238281 172.539062 59.320312 C 172.910156 59.417969 173.214844 59.523438 173.453125 59.628906 C 173.695312 59.726562 173.90625 59.875 174.078125 60.074219 C 174.253906 60.273438 174.34375 60.539062 174.351562 60.871094 C 174.351562 61.164062 174.269531 61.425781 174.109375 61.65625 C 173.945312 61.886719 173.714844 62.066406 173.417969 62.195312 C 173.125 62.328125 172.777344 62.394531 172.378906 62.394531 C 171.972656 62.394531 171.609375 62.320312 171.285156 62.179688 C 170.96875 62.027344 170.714844 61.828125 170.53125 61.582031 C 170.34375 61.324219 170.242188 61.042969 170.230469 60.730469 L 171.332031 60.730469 C 171.351562 60.949219 171.453125 61.132812 171.640625 61.28125 C 171.835938 61.425781 172.074219 61.496094 172.359375 61.496094 C 172.660156 61.496094 172.890625 61.441406 173.050781 61.328125 C 173.21875 61.210938 173.304688 61.058594 173.304688 60.878906 C 173.304688 60.6875 173.210938 60.542969 173.023438 60.449219 C 172.84375 60.355469 172.554688 60.253906 172.15625 60.140625 C 171.769531 60.035156 171.453125 59.933594 171.210938 59.832031 C 170.96875 59.734375 170.757812 59.582031 170.574219 59.375 C 170.402344 59.171875 170.316406 58.898438 170.316406 58.5625 C 170.316406 58.289062 170.394531 58.039062 170.558594 57.816406 C 170.71875 57.585938 170.949219 57.40625 171.25 57.273438 C 171.554688 57.144531 171.902344 57.078125 172.296875 57.078125 Z M 189.953125 57.078125 C 190.359375 57.078125 190.710938 57.15625 191.011719 57.320312 C 191.316406 57.476562 191.558594 57.671875 191.738281 57.910156 L 191.738281 57.160156 L 192.8125 57.160156 L 192.8125 62.308594 L 191.738281 62.308594 L 191.738281 61.542969 C 191.558594 61.785156 191.3125 61.988281 191 62.148438 C 190.691406 62.3125 190.335938 62.394531 189.9375 62.394531 C 189.492188 62.394531 189.089844 62.28125 188.722656 62.058594 C 188.355469 61.828125 188.0625 61.507812 187.84375 61.105469 C 187.632812 60.691406 187.527344 60.226562 187.527344 59.710938 C 187.527344 59.195312 187.632812 58.738281 187.84375 58.339844 C 188.0625 57.941406 188.355469 57.632812 188.722656 57.414062 C 189.09375 57.191406 189.507812 57.078125 189.953125 57.078125 Z M 202.632812 57.078125 C 203.253906 57.078125 203.769531 57.226562 204.175781 57.527344 C 204.585938 57.816406 204.863281 58.238281 205.003906 58.785156 L 203.855469 58.785156 C 203.761719 58.53125 203.613281 58.332031 203.40625 58.1875 C 203.203125 58.046875 202.945312 57.972656 202.632812 57.972656 C 202.195312 57.972656 201.847656 58.128906 201.585938 58.441406 C 201.332031 58.746094 201.203125 59.175781 201.203125 59.730469 C 201.203125 60.285156 201.332031 60.71875 201.585938 61.027344 C 201.847656 61.339844 202.195312 61.496094 202.632812 61.496094 C 203.25 61.496094 203.65625 61.226562 203.855469 60.683594 L 205.003906 60.683594 C 204.855469 61.207031 204.574219 61.625 204.164062 61.933594 C 203.753906 62.242188 203.242188 62.394531 202.632812 62.394531 C 202.140625 62.394531 201.703125 62.285156 201.324219 62.066406 C 200.945312 61.84375 200.644531 61.53125 200.429688 61.132812 C 200.214844 60.726562 200.109375 60.261719 200.109375 59.730469 C 200.109375 59.199219 200.214844 58.738281 200.429688 58.339844 C 200.644531 57.933594 200.945312 57.621094 201.324219 57.402344 C 201.703125 57.1875 202.140625 57.078125 202.632812 57.078125 Z M 118.441406 60.03125 C 118.441406 60.488281 118.554688 60.84375 118.785156 61.09375 C 119.015625 61.335938 119.332031 61.457031 119.730469 61.457031 C 120.128906 61.457031 120.441406 61.335938 120.671875 61.09375 C 120.90625 60.84375 121.027344 60.488281 121.027344 60.03125 L 121.027344 57.160156 L 122.09375 57.160156 L 122.09375 62.308594 L 121.027344 62.308594 L 121.027344 61.703125 C 120.859375 61.914062 120.636719 62.082031 120.363281 62.207031 C 120.097656 62.324219 119.808594 62.382812 119.503906 62.382812 C 119.097656 62.382812 118.734375 62.300781 118.410156 62.132812 C 118.09375 61.964844 117.839844 61.714844 117.65625 61.382812 C 117.472656 61.054688 117.382812 60.65625 117.382812 60.1875 L 117.382812 57.160156 L 118.441406 57.160156 Z M 176.601562 60.03125 C 176.601562 60.488281 176.71875 60.84375 176.949219 61.09375 C 177.179688 61.335938 177.492188 61.457031 177.894531 61.457031 C 178.292969 61.457031 178.605469 61.335938 178.835938 61.09375 C 179.074219 60.84375 179.191406 60.492188 179.191406 60.03125 L 179.191406 57.160156 L 180.257812 57.160156 L 180.257812 62.308594 L 179.191406 62.308594 L 179.191406 61.703125 C 179.023438 61.914062 178.800781 62.082031 178.527344 62.207031 C 178.261719 62.324219 177.972656 62.382812 177.667969 62.382812 C 177.261719 62.382812 176.898438 62.300781 176.574219 62.132812 C 176.257812 61.964844 176.003906 61.714844 175.820312 61.382812 C 175.636719 61.054688 175.546875 60.65625 175.546875 60.1875 L 175.546875 57.160156 L 176.601562 57.160156 Z M 153.941406 55.730469 C 154.632812 55.730469 155.246094 55.902344 155.785156 56.246094 C 156.324219 56.582031 156.71875 57.0625 156.960938 57.683594 L 155.679688 57.683594 C 155.511719 57.34375 155.277344 57.085938 154.980469 56.917969 C 154.679688 56.75 154.335938 56.667969 153.941406 56.667969 C 153.511719 56.667969 153.128906 56.761719 152.792969 56.957031 C 152.457031 57.148438 152.191406 57.425781 152 57.789062 C 151.8125 58.148438 151.71875 58.570312 151.71875 59.046875 C 151.71875 59.527344 151.8125 59.949219 152 60.308594 C 152.191406 60.671875 152.457031 60.949219 152.792969 61.148438 C 153.128906 61.34375 153.511719 61.441406 153.941406 61.441406 C 154.335938 61.441406 154.679688 61.355469 154.980469 61.1875 C 155.277344 61.019531 155.511719 60.765625 155.679688 60.421875 L 156.960938 60.421875 C 156.71875 61.042969 156.324219 61.523438 155.785156 61.859375 C 155.246094 62.195312 154.632812 62.363281 153.941406 62.363281 C 153.332031 62.363281 152.773438 62.226562 152.269531 61.945312 C 151.765625 61.65625 151.363281 61.261719 151.066406 60.757812 C 150.773438 60.253906 150.625 59.683594 150.625 59.046875 C 150.625 58.414062 150.773438 57.84375 151.066406 57.339844 C 151.363281 56.835938 151.765625 56.441406 152.269531 56.160156 C 152.78125 55.875 153.339844 55.730469 153.941406 55.730469 Z M 98.886719 62.308594 L 97.765625 62.308594 L 97.296875 60.984375 L 94.578125 60.984375 L 94.113281 62.308594 L 93 62.308594 L 95.324219 55.808594 L 96.558594 55.808594 Z M 126.1875 57.078125 C 126.59375 57.078125 126.953125 57.160156 127.269531 57.328125 C 127.59375 57.496094 127.847656 57.746094 128.027344 58.078125 C 128.207031 58.40625 128.296875 58.804688 128.296875 59.273438 L 128.296875 62.308594 L 127.242188 62.308594 L 127.242188 59.429688 C 127.242188 58.972656 127.128906 58.617188 126.898438 58.375 C 126.667969 58.128906 126.351562 58.003906 125.953125 58.003906 C 125.554688 58.003906 125.238281 58.128906 125 58.375 C 124.769531 58.617188 124.65625 58.972656 124.65625 59.429688 L 124.65625 62.308594 L 123.589844 62.308594 L 123.589844 57.160156 L 124.65625 57.160156 L 124.65625 57.75 C 124.832031 57.539062 125.050781 57.375 125.320312 57.253906 C 125.59375 57.136719 125.882812 57.078125 126.1875 57.078125 Z M 130.992188 57.160156 L 132.246094 57.160156 L 132.246094 58.03125 L 130.992188 58.03125 L 130.992188 60.878906 C 130.992188 61.074219 131.035156 61.210938 131.125 61.300781 C 131.21875 61.378906 131.375 61.421875 131.589844 61.421875 L 132.246094 61.421875 L 132.246094 62.308594 L 131.402344 62.308594 C 130.925781 62.308594 130.558594 62.195312 130.300781 61.972656 C 130.046875 61.75 129.917969 61.382812 129.917969 60.878906 L 129.917969 58.03125 L 129.3125 58.03125 L 129.3125 57.160156 L 129.917969 57.160156 L 129.917969 55.882812 L 130.992188 55.882812 Z M 134.386719 62.308594 L 133.320312 62.308594 L 133.320312 57.160156 L 134.386719 57.160156 Z M 138.472656 57.078125 C 138.878906 57.078125 139.238281 57.160156 139.554688 57.328125 C 139.878906 57.496094 140.132812 57.746094 140.3125 58.078125 C 140.496094 58.40625 140.585938 58.804688 140.585938 59.273438 L 140.585938 62.308594 L 139.527344 62.308594 L 139.527344 59.429688 C 139.527344 58.972656 139.414062 58.617188 139.183594 58.375 C 138.953125 58.128906 138.636719 58.003906 138.238281 58.003906 C 137.839844 58.003906 137.523438 58.128906 137.285156 58.375 C 137.054688 58.617188 136.941406 58.972656 136.941406 59.429688 L 136.941406 62.308594 L 135.875 62.308594 L 135.875 57.160156 L 136.941406 57.160156 L 136.941406 57.75 C 137.117188 57.539062 137.335938 57.375 137.605469 57.253906 C 137.878906 57.136719 138.167969 57.078125 138.472656 57.078125 Z M 166.949219 57.078125 C 167.351562 57.078125 167.714844 57.160156 168.03125 57.328125 C 168.355469 57.496094 168.609375 57.746094 168.789062 58.078125 C 168.96875 58.40625 169.058594 58.804688 169.058594 59.273438 L 169.058594 62.308594 L 168.003906 62.308594 L 168.003906 59.429688 C 168.003906 58.972656 167.886719 58.617188 167.65625 58.375 C 167.425781 58.128906 167.113281 58.003906 166.714844 58.003906 C 166.316406 58.003906 166 58.128906 165.761719 58.375 C 165.53125 58.617188 165.417969 58.972656 165.417969 59.429688 L 165.417969 62.308594 L 164.351562 62.308594 L 164.351562 57.160156 L 165.417969 57.160156 L 165.417969 57.75 C 165.589844 57.539062 165.8125 57.375 166.078125 57.253906 C 166.351562 57.136719 166.644531 57.078125 166.949219 57.078125 Z M 182.820312 62.308594 L 181.753906 62.308594 L 181.753906 55.394531 L 182.820312 55.394531 Z M 185.554688 57.160156 L 186.804688 57.160156 L 186.804688 58.03125 L 185.554688 58.03125 L 185.554688 60.878906 C 185.554688 61.070312 185.597656 61.210938 185.683594 61.300781 C 185.777344 61.378906 185.933594 61.421875 186.152344 61.421875 L 186.804688 61.421875 L 186.804688 62.308594 L 185.964844 62.308594 C 185.484375 62.308594 185.117188 62.195312 184.863281 61.972656 C 184.605469 61.75 184.480469 61.382812 184.480469 60.878906 L 184.480469 58.03125 L 183.871094 58.03125 L 183.871094 57.160156 L 184.480469 57.160156 L 184.480469 55.882812 L 185.554688 55.882812 Z M 196.902344 57.078125 C 197.308594 57.078125 197.667969 57.160156 197.984375 57.328125 C 198.308594 57.496094 198.5625 57.746094 198.742188 58.078125 C 198.921875 58.40625 199.015625 58.804688 199.015625 59.273438 L 199.015625 62.308594 L 197.957031 62.308594 L 197.957031 59.429688 C 197.957031 58.972656 197.84375 58.617188 197.613281 58.375 C 197.382812 58.128906 197.066406 58.003906 196.667969 58.003906 C 196.269531 58.003906 195.953125 58.128906 195.714844 58.375 C 195.484375 58.617188 195.371094 58.972656 195.371094 59.429688 L 195.371094 62.308594 L 194.304688 62.308594 L 194.304688 57.160156 L 195.371094 57.160156 L 195.371094 57.75 C 195.542969 57.539062 195.765625 57.375 196.03125 57.253906 C 196.308594 57.136719 196.597656 57.078125 196.902344 57.078125 Z M 113.640625 58.003906 C 113.367188 58.003906 113.113281 58.066406 112.875 58.199219 C 112.644531 58.328125 112.460938 58.523438 112.324219 58.785156 C 112.1875 59.042969 112.117188 59.355469 112.117188 59.730469 C 112.117188 60.285156 112.257812 60.714844 112.539062 61.019531 C 112.824219 61.320312 113.183594 61.46875 113.613281 61.46875 C 113.886719 61.46875 114.140625 61.402344 114.378906 61.273438 C 114.621094 61.140625 114.816406 60.945312 114.96875 60.683594 C 115.117188 60.421875 115.191406 60.105469 115.191406 59.730469 C 115.191406 59.355469 115.121094 59.042969 114.976562 58.785156 C 114.832031 58.523438 114.644531 58.328125 114.40625 58.199219 C 114.167969 58.066406 113.914062 58.003906 113.640625 58.003906 Z M 144.335938 58.003906 C 144.0625 58.003906 143.804688 58.070312 143.570312 58.207031 C 143.332031 58.339844 143.140625 58.535156 142.988281 58.796875 C 142.847656 59.050781 142.773438 59.355469 142.773438 59.710938 C 142.773438 60.066406 142.847656 60.378906 142.988281 60.644531 C 143.140625 60.914062 143.332031 61.121094 143.570312 61.261719 C 143.8125 61.398438 144.066406 61.46875 144.335938 61.46875 C 144.609375 61.46875 144.863281 61.398438 145.101562 61.261719 C 145.335938 61.125 145.527344 60.925781 145.671875 60.664062 C 145.820312 60.398438 145.894531 60.085938 145.894531 59.730469 C 145.894531 59.375 145.820312 59.066406 145.671875 58.804688 C 145.527344 58.542969 145.335938 58.34375 145.101562 58.207031 C 144.863281 58.070312 144.609375 58.003906 144.335938 58.003906 Z M 160.5625 58.003906 C 160.285156 58.003906 160.03125 58.066406 159.796875 58.199219 C 159.566406 58.328125 159.378906 58.523438 159.242188 58.785156 C 159.105469 59.042969 159.039062 59.355469 159.039062 59.730469 C 159.039062 60.285156 159.179688 60.714844 159.460938 61.019531 C 159.746094 61.320312 160.101562 61.46875 160.53125 61.46875 C 160.804688 61.46875 161.0625 61.402344 161.296875 61.273438 C 161.542969 61.140625 161.738281 60.945312 161.886719 60.683594 C 162.039062 60.421875 162.113281 60.105469 162.113281 59.730469 C 162.113281 59.355469 162.039062 59.042969 161.898438 58.785156 C 161.753906 58.523438 161.5625 58.328125 161.328125 58.199219 C 161.089844 58.066406 160.835938 58.003906 160.5625 58.003906 Z M 190.179688 58.003906 C 189.90625 58.003906 189.648438 58.070312 189.414062 58.207031 C 189.175781 58.339844 188.984375 58.535156 188.832031 58.796875 C 188.691406 59.050781 188.617188 59.355469 188.617188 59.710938 C 188.617188 60.066406 188.691406 60.378906 188.832031 60.644531 C 188.984375 60.914062 189.175781 61.121094 189.414062 61.261719 C 189.65625 61.398438 189.910156 61.46875 190.179688 61.46875 C 190.453125 61.46875 190.707031 61.398438 190.945312 61.261719 C 191.179688 61.125 191.371094 60.925781 191.515625 60.664062 C 191.664062 60.398438 191.738281 60.085938 191.738281 59.730469 C 191.738281 59.375 191.664062 59.066406 191.515625 58.804688 C 191.371094 58.542969 191.183594 58.34375 190.945312 58.207031 C 190.707031 58.070312 190.453125 58.003906 190.179688 58.003906 Z M 94.878906 60.113281 L 97 60.113281 L 95.941406 57.097656 Z M 133.863281 55.117188 C 134.046875 55.117188 134.207031 55.179688 134.339844 55.3125 C 134.46875 55.441406 134.535156 55.605469 134.535156 55.796875 C 134.535156 55.992188 134.46875 56.152344 134.339844 56.285156 C 134.207031 56.414062 134.046875 56.480469 133.863281 56.480469 C 133.667969 56.480469 133.507812 56.414062 133.375 56.285156 C 133.246094 56.152344 133.179688 55.992188 133.179688 55.796875 C 133.179688 55.605469 133.246094 55.441406 133.375 55.3125 C 133.507812 55.179688 133.667969 55.117188 133.863281 55.117188 Z M 132.890625 27.972656 C 134.40625 27.972656 135.792969 28.324219 137.050781 29.027344 C 138.324219 29.734375 139.320312 30.714844 140.039062 31.972656 C 140.777344 33.230469 141.144531 34.648438 141.144531 36.226562 C 141.144531 37.605469 140.859375 38.871094 140.292969 40.019531 C 139.742188 41.15625 138.96875 42.097656 137.96875 42.847656 L 141.511719 47.101562 L 136.753906 47.101562 L 134.683594 44.320312 C 134.070312 44.441406 133.472656 44.503906 132.890625 44.503906 C 131.371094 44.503906 129.976562 44.152344 128.703125 43.445312 C 127.449219 42.742188 126.441406 41.761719 125.691406 40.503906 C 124.957031 39.230469 124.585938 37.804688 124.585938 36.226562 C 124.585938 34.648438 124.957031 33.230469 125.691406 31.972656 C 126.441406 30.714844 127.449219 29.734375 128.703125 29.027344 C 129.976562 28.324219 131.371094 27.972656 132.890625 27.972656 Z M 173.582031 31.328125 C 174.488281 31.328125 175.277344 31.511719 175.953125 31.878906 C 176.640625 32.25 177.171875 32.730469 177.539062 33.328125 L 177.539062 31.511719 L 181.46875 31.511719 L 181.46875 44.34375 L 177.539062 44.34375 L 177.539062 42.527344 C 177.15625 43.125 176.617188 43.609375 175.929688 43.976562 C 175.253906 44.34375 174.464844 44.527344 173.558594 44.527344 C 172.515625 44.527344 171.566406 44.257812 170.707031 43.722656 C 169.851562 43.171875 169.167969 42.398438 168.660156 41.402344 C 168.171875 40.390625 167.925781 39.222656 167.925781 37.90625 C 167.925781 36.585938 168.171875 35.429688 168.660156 34.433594 C 169.167969 33.4375 169.851562 32.667969 170.707031 32.132812 C 171.566406 31.597656 172.523438 31.328125 173.582031 31.328125 Z M 147.171875 38.480469 C 147.171875 39.339844 147.394531 40.003906 147.839844 40.480469 C 148.285156 40.957031 148.882812 41.195312 149.632812 41.195312 C 150.398438 41.195312 151.003906 40.957031 151.449219 40.480469 C 151.894531 40.003906 152.113281 39.339844 152.113281 38.480469 L 152.113281 31.511719 L 156.046875 31.511719 L 156.046875 44.34375 L 152.113281 44.34375 L 152.113281 42.597656 C 151.714844 43.164062 151.171875 43.625 150.484375 43.976562 C 149.808594 44.3125 149.058594 44.480469 148.230469 44.480469 C 147.25 44.480469 146.382812 44.265625 145.632812 43.835938 C 144.878906 43.394531 144.296875 42.757812 143.882812 41.929688 C 143.46875 41.101562 143.261719 40.128906 143.261719 39.007812 L 143.261719 31.511719 L 147.171875 31.511719 Z M 109.285156 44.34375 L 105.121094 44.34375 L 104.15625 41.492188 L 98.132812 41.492188 L 97.167969 44.34375 L 93.050781 44.34375 L 98.890625 28.199219 L 103.445312 28.199219 Z M 114.996094 44.34375 L 111.0625 44.34375 L 111.0625 27.328125 L 114.996094 27.328125 Z M 166.828125 35.535156 L 165.746094 35.535156 C 164.765625 35.535156 164.03125 35.75 163.539062 36.179688 C 163.050781 36.59375 162.804688 37.332031 162.804688 38.386719 L 162.804688 44.34375 L 158.871094 44.34375 L 158.871094 31.511719 L 162.804688 31.511719 L 162.804688 33.652344 C 163.265625 32.945312 163.839844 32.394531 164.527344 31.996094 C 165.21875 31.582031 165.984375 31.375 166.828125 31.375 Z M 188.246094 44.34375 L 184.316406 44.34375 L 184.316406 31.511719 L 188.246094 31.511719 Z M 198.914062 31.375 C 200.417969 31.375 201.613281 31.863281 202.503906 32.847656 C 203.40625 33.8125 203.859375 35.144531 203.859375 36.847656 L 203.859375 44.34375 L 199.949219 44.34375 L 199.949219 37.375 C 199.949219 36.515625 199.726562 35.851562 199.285156 35.375 C 198.839844 34.898438 198.242188 34.664062 197.488281 34.664062 C 196.738281 34.664062 196.140625 34.898438 195.695312 35.375 C 195.25 35.851562 195.027344 36.515625 195.027344 37.375 L 195.027344 44.34375 L 191.097656 44.34375 L 191.097656 31.511719 L 195.027344 31.511719 L 195.027344 33.214844 C 195.425781 32.648438 195.964844 32.203125 196.640625 31.878906 C 197.3125 31.542969 198.074219 31.375 198.914062 31.375 Z M 210.523438 44.34375 L 206.59375 44.34375 L 206.59375 31.511719 L 210.523438 31.511719 Z M 174.734375 34.753906 C 173.949219 34.753906 173.285156 35.039062 172.730469 35.605469 C 172.195312 36.15625 171.925781 36.925781 171.925781 37.90625 C 171.925781 38.886719 172.195312 39.667969 172.730469 40.25 C 173.285156 40.816406 173.949219 41.101562 174.734375 41.101562 C 175.515625 41.101562 176.171875 40.816406 176.710938 40.25 C 177.261719 39.683594 177.539062 38.910156 177.539062 37.929688 C 177.539062 36.945312 177.261719 36.171875 176.710938 35.605469 C 176.171875 35.039062 175.515625 34.753906 174.734375 34.753906 Z M 132.890625 31.535156 C 131.585938 31.535156 130.542969 31.957031 129.761719 32.800781 C 128.996094 33.644531 128.613281 34.785156 128.613281 36.226562 C 128.613281 37.652344 128.996094 38.792969 129.761719 39.652344 C 130.542969 40.496094 131.585938 40.917969 132.890625 40.917969 C 134.175781 40.917969 135.203125 40.488281 135.972656 39.628906 C 136.753906 38.773438 137.144531 37.636719 137.144531 36.226562 C 137.144531 34.800781 136.753906 33.667969 135.972656 32.824219 C 135.203125 31.964844 134.175781 31.535156 132.890625 31.535156 Z M 123.132812 39.582031 L 117.109375 39.582031 L 117.109375 36.777344 L 123.132812 36.777344 Z M 99.167969 38.457031 L 103.144531 38.457031 L 101.144531 32.546875 Z M 186.292969 25.925781 C 186.96875 25.925781 187.519531 26.132812 187.949219 26.546875 C 188.394531 26.945312 188.613281 27.449219 188.613281 28.0625 C 188.613281 28.660156 188.394531 29.167969 187.949219 29.582031 C 187.519531 29.980469 186.96875 30.179688 186.292969 30.179688 C 185.601562 30.179688 185.035156 29.980469 184.589844 29.582031 C 184.160156 29.167969 183.945312 28.660156 183.945312 28.0625 C 183.945312 27.449219 184.160156 26.945312 184.589844 26.546875 C 185.035156 26.132812 185.601562 25.925781 186.292969 25.925781 Z M 208.570312 25.925781 C 209.242188 25.925781 209.796875 26.132812 210.226562 26.546875 C 210.667969 26.945312 210.890625 27.449219 210.890625 28.0625 C 210.890625 28.660156 210.667969 29.167969 210.226562 29.582031 C 209.796875 29.980469 209.242188 30.179688 208.570312 30.179688 C 207.878906 30.179688 207.3125 29.980469 206.867188 29.582031 C 206.4375 29.167969 206.222656 28.660156 206.222656 28.0625 C 206.222656 27.449219 206.4375 26.945312 206.867188 26.546875 C 207.3125 26.132812 207.878906 25.925781 208.570312 25.925781 Z M 208.570312 25.925781 " fill-opacity="1" fill-rule="nonzero"/></g></svg>